<svg xmlns="http://www.w3.org/2000/svg" xmlns:xlink="http://www.w3.org/1999/xlink" width="500" zoomAndPan="magnify" viewBox="0 0 375 374.999991" height="500" preserveAspectRatio="xMidYMid meet" version="1.0"><defs><clipPath id="006831b568"><path d="M 128.257812 128.257812 L 246.757812 128.257812 L 246.757812 246.757812 L 128.257812 246.757812 Z M 128.257812 128.257812 " clip-rule="nonzero"/></clipPath></defs><rect x="-37.5" width="450" fill="#ffffff" y="-37.499999" height="449.999989" fill-opacity="1"/><rect x="-37.5" width="450" fill="#ffffff" y="-37.499999" height="449.999989" fill-opacity="1"/><g clip-path="url(#006831b568)"><path fill="#2a89fa" d="M 146.605469 136.523438 C 141.074219 136.523438 136.519531 141.078125 136.519531 146.609375 C 136.519531 152.140625 141.078125 156.695312 146.605469 156.695312 C 173.875 156.695312 201.144531 156.695312 228.410156 156.695312 C 233.941406 156.695312 238.496094 152.140625 238.496094 146.609375 C 238.496094 141.078125 233.941406 136.523438 228.410156 136.523438 C 201.144531 136.523438 173.875 136.523438 146.605469 136.523438 M 162.363281 209.910156 L 162.363281 228.414062 C 162.363281 233.945312 166.917969 238.496094 172.449219 238.496094 C 177.980469 238.496094 182.535156 233.941406 182.535156 228.414062 L 182.535156 209.910156 Z M 154.101562 201.648438 L 154.101562 181.476562 L 146.605469 181.476562 C 141.078125 181.476562 136.519531 186.03125 136.519531 191.5625 C 136.519531 197.09375 141.074219 201.648438 146.605469 201.648438 Z M 146.605469 128.261719 C 180.746094 128.261719 194.273438 128.261719 228.410156 128.261719 C 238.503906 128.261719 246.757812 136.515625 246.757812 146.609375 C 246.757812 156.699219 238.5 164.957031 228.410156 164.957031 L 162.363281 164.957031 C 162.363281 177.1875 162.363281 189.417969 162.363281 201.648438 C 174.339844 201.648438 186.316406 201.648438 198.292969 201.648438 C 203.824219 201.648438 208.375 197.09375 208.375 191.5625 C 208.375 186.035156 203.820312 181.476562 198.292969 181.476562 L 182.535156 181.476562 L 182.535156 173.21875 L 198.292969 173.21875 C 208.378906 173.21875 216.636719 181.472656 216.636719 191.5625 C 216.636719 201.65625 208.382812 209.910156 198.292969 209.910156 L 190.796875 209.910156 L 190.796875 228.414062 C 190.796875 238.5 182.539062 246.757812 172.449219 246.757812 C 162.355469 246.757812 154.101562 238.503906 154.101562 228.414062 L 154.101562 209.910156 L 146.605469 209.910156 C 136.515625 209.910156 128.257812 201.65625 128.257812 191.5625 C 128.257812 181.472656 136.515625 173.214844 146.605469 173.214844 L 154.101562 173.214844 L 154.101562 164.957031 L 146.605469 164.957031 C 136.515625 164.957031 128.257812 156.699219 128.257812 146.609375 C 128.257812 136.515625 136.515625 128.261719 146.605469 128.261719 Z M 146.605469 128.261719 " fill-opacity="1" fill-rule="evenodd"/></g></svg>