<svg xmlns="http://www.w3.org/2000/svg" xmlns:xlink="http://www.w3.org/1999/xlink" width="500" zoomAndPan="magnify" viewBox="0 0 375 374.999991" height="500" preserveAspectRatio="xMidYMid meet" version="1.0"><defs><g/><clipPath id="d402b1da56"><path d="M 128.257812 93.71875 L 246.757812 93.71875 L 246.757812 212.21875 L 128.257812 212.21875 Z M 128.257812 93.71875 " clip-rule="nonzero"/></clipPath></defs><rect x="-37.5" width="450" fill="#ffffff" y="-37.499999" height="449.999989" fill-opacity="1"/><rect x="-37.5" width="450" fill="#ffffff" y="-37.499999" height="449.999989" fill-opacity="1"/><g fill="#2a89fa" fill-opacity="1"><g transform="translate(137.334447, 255.661639)"><g><path d="M 7.1875 -16.71875 L 7.21875 -14.328125 L 7.21875 -12.40625 L 13.75 -12.40625 C 13.914062 -11.789062 14 -11.125 14 -10.40625 C 14 -9.6875 13.914062 -9.019531 13.75 -8.40625 L 7.21875 -8.40625 L 7.21875 0 C 6.5625 0.125 5.742188 0.1875 4.765625 0.1875 C 3.785156 0.1875 2.972656 0.125 2.328125 0 L 2.328125 -20.6875 L 2.53125 -20.875 L 15.625 -20.875 C 15.738281 -20.363281 15.796875 -19.722656 15.796875 -18.953125 C 15.796875 -18.191406 15.585938 -17.628906 15.171875 -17.265625 C 14.753906 -16.898438 14.097656 -16.71875 13.203125 -16.71875 Z M 7.1875 -16.71875 "/></g></g></g><g fill="#2a89fa" fill-opacity="1"><g transform="translate(153.685398, 255.661639)"><g><path d="M 2.390625 0 L 2.390625 -20.875 C 3.015625 -21 3.828125 -21.0625 4.828125 -21.0625 C 5.828125 -21.0625 6.648438 -21 7.296875 -20.875 L 7.296875 0 C 6.648438 0.125 5.828125 0.1875 4.828125 0.1875 C 3.828125 0.1875 3.015625 0.125 2.390625 0 Z M 2.390625 0 "/></g></g></g><g fill="#2a89fa" fill-opacity="1"><g transform="translate(163.373714, 255.661639)"><g><path d="M 10.234375 -16.84375 L 10.265625 -14.578125 L 10.265625 0 C 9.578125 0.125 8.753906 0.1875 7.796875 0.1875 C 6.835938 0.1875 6.03125 0.125 5.375 0 L 5.375 -16.84375 L 3.421875 -16.8125 L 0.28125 -16.8125 C 0.15625 -17.40625 0.09375 -18.082031 0.09375 -18.84375 C 0.09375 -19.601562 0.15625 -20.28125 0.28125 -20.875 L 15.40625 -20.875 C 15.5625 -20.34375 15.640625 -19.695312 15.640625 -18.9375 C 15.640625 -18.1875 15.4375 -17.644531 15.03125 -17.3125 C 14.625 -16.976562 13.972656 -16.8125 13.078125 -16.8125 L 12.1875 -16.8125 L 10.265625 -16.84375 Z M 10.234375 -16.84375 "/></g></g></g><g fill="#2a89fa" fill-opacity="1"><g transform="translate(178.9606, 255.661639)"><g><path d="M 6.84375 -5.6875 C 7.394531 -4.09375 8.503906 -3.296875 10.171875 -3.296875 C 11.015625 -3.296875 11.691406 -3.503906 12.203125 -3.921875 C 12.722656 -4.335938 13.128906 -4.867188 13.421875 -5.515625 C 13.722656 -6.160156 13.925781 -6.878906 14.03125 -7.671875 C 14.132812 -8.460938 14.1875 -9.25 14.1875 -10.03125 C 14.1875 -10.738281 14.160156 -11.53125 14.109375 -12.40625 C 14.054688 -13.28125 13.90625 -14.097656 13.65625 -14.859375 C 13.414062 -15.628906 13.03125 -16.273438 12.5 -16.796875 C 11.96875 -17.316406 11.191406 -17.578125 10.171875 -17.578125 C 9.191406 -17.578125 8.441406 -17.328125 7.921875 -16.828125 C 7.410156 -16.328125 7.023438 -15.707031 6.765625 -14.96875 C 6.515625 -14.238281 6.359375 -13.460938 6.296875 -12.640625 C 6.234375 -11.816406 6.203125 -11.085938 6.203125 -10.453125 C 6.203125 -9.515625 6.25 -8.675781 6.34375 -7.9375 C 6.4375 -7.207031 6.601562 -6.457031 6.84375 -5.6875 Z M 4.375 -1.46875 C 2.1875 -3.28125 1.09375 -6.265625 1.09375 -10.421875 C 1.09375 -12.210938 1.300781 -13.785156 1.71875 -15.140625 C 2.144531 -16.492188 2.75 -17.628906 3.53125 -18.546875 C 4.3125 -19.460938 5.257812 -20.15625 6.375 -20.625 C 7.5 -21.09375 8.765625 -21.328125 10.171875 -21.328125 C 11.578125 -21.328125 12.84375 -21.09375 13.96875 -20.625 C 15.101562 -20.15625 16.0625 -19.457031 16.84375 -18.53125 C 17.632812 -17.601562 18.238281 -16.460938 18.65625 -15.109375 C 19.070312 -13.753906 19.28125 -12.191406 19.28125 -10.421875 C 19.28125 -8.648438 19.070312 -7.085938 18.65625 -5.734375 C 18.238281 -4.378906 17.632812 -3.242188 16.84375 -2.328125 C 16.0625 -1.410156 15.101562 -0.71875 13.96875 -0.25 C 12.84375 0.21875 11.578125 0.453125 10.171875 0.453125 C 7.847656 0.453125 5.914062 -0.1875 4.375 -1.46875 Z M 4.375 -1.46875 "/></g></g></g><g fill="#2a89fa" fill-opacity="1"><g transform="translate(199.345799, 255.661639)"><g><path d="M 17.296875 -14.421875 C 17.296875 -13.753906 17.191406 -13.117188 16.984375 -12.515625 C 16.785156 -11.910156 16.515625 -11.367188 16.171875 -10.890625 C 15.835938 -10.410156 15.441406 -9.992188 14.984375 -9.640625 C 14.523438 -9.285156 14.050781 -9.015625 13.5625 -8.828125 C 14.625 -8.441406 15.410156 -7.503906 15.921875 -6.015625 L 16.84375 -3.421875 C 17.1875 -2.398438 17.695312 -1.644531 18.375 -1.15625 C 18.0625 -0.75 17.597656 -0.40625 16.984375 -0.125 C 16.378906 0.144531 15.707031 0.28125 14.96875 0.28125 C 14.238281 0.28125 13.671875 0.0703125 13.265625 -0.34375 C 12.859375 -0.769531 12.484375 -1.5 12.140625 -2.53125 L 11.03125 -5.75 C 10.8125 -6.351562 10.507812 -6.816406 10.125 -7.140625 C 9.75 -7.472656 9.1875 -7.640625 8.4375 -7.640625 L 7.1875 -7.640625 L 7.1875 0 C 6.53125 0.125 5.710938 0.1875 4.734375 0.1875 C 3.753906 0.1875 2.953125 0.125 2.328125 0 L 2.328125 -20.71875 L 2.53125 -20.9375 C 4.3125 -20.976562 5.804688 -21.007812 7.015625 -21.03125 C 8.222656 -21.050781 9.175781 -21.0625 9.875 -21.0625 C 10.988281 -21.0625 12.003906 -20.921875 12.921875 -20.640625 C 13.835938 -20.367188 14.617188 -19.957031 15.265625 -19.40625 C 15.910156 -18.851562 16.410156 -18.160156 16.765625 -17.328125 C 17.117188 -16.492188 17.296875 -15.523438 17.296875 -14.421875 Z M 7.1875 -17.390625 L 7.1875 -11.40625 C 8.101562 -11.40625 8.882812 -11.414062 9.53125 -11.4375 C 10.1875 -11.46875 10.710938 -11.59375 11.109375 -11.8125 C 11.503906 -12.03125 11.800781 -12.332031 12 -12.71875 C 12.207031 -13.101562 12.3125 -13.660156 12.3125 -14.390625 C 12.3125 -16.367188 11.351562 -17.359375 9.4375 -17.359375 C 8.96875 -17.359375 8.546875 -17.359375 8.171875 -17.359375 C 7.796875 -17.359375 7.46875 -17.367188 7.1875 -17.390625 Z M 7.1875 -17.390625 "/></g></g></g><g fill="#2a89fa" fill-opacity="1"><g transform="translate(218.141746, 255.661639)"><g><path d="M 7.390625 -4.375 C 6.847656 -4.375 6.441406 -4.382812 6.171875 -4.40625 L 4.859375 0.03125 C 4.367188 0.15625 3.6875 0.21875 2.8125 0.21875 C 1.832031 0.21875 1.035156 0.101562 0.421875 -0.125 L 0.28125 -0.359375 L 7 -20.875 C 7.789062 -21 8.71875 -21.0625 9.78125 -21.0625 C 10.976562 -21.0625 11.9375 -20.988281 12.65625 -20.84375 L 19.25 -0.3125 C 18.539062 0.0820312 17.738281 0.28125 16.84375 0.28125 C 15.78125 0.28125 15.035156 0.0976562 14.609375 -0.265625 C 14.179688 -0.640625 13.816406 -1.347656 13.515625 -2.390625 L 12.921875 -4.40625 C 12.660156 -4.382812 12.265625 -4.375 11.734375 -4.375 Z M 7.296875 -8.21875 L 8.53125 -8.25 L 10.765625 -8.25 C 10.859375 -8.25 11.03125 -8.242188 11.28125 -8.234375 C 11.539062 -8.222656 11.734375 -8.21875 11.859375 -8.21875 L 11.34375 -10.109375 C 10.851562 -11.828125 10.289062 -13.925781 9.65625 -16.40625 L 9.46875 -16.40625 C 9.3125 -15.53125 8.820312 -13.585938 8 -10.578125 Z M 7.296875 -8.21875 "/></g></g></g><g fill="#2a89fa" fill-opacity="1"><g transform="translate(94.828768, 276.803039)"><g><path d="M 1.609375 -11.515625 L 4.53125 -6.390625 L 7.46875 -11.515625 L 8.953125 -11.515625 L 5.1875 -4.953125 L 5.1875 0 L 3.890625 0 L 3.890625 -4.953125 L 0.125 -11.515625 Z M 1.609375 -11.515625 "/></g></g></g><g fill="#2a89fa" fill-opacity="1"><g transform="translate(107.963815, 276.803039)"><g><path d="M 0.515625 -3.578125 C 0.515625 -4.253906 0.679688 -4.890625 1.015625 -5.484375 C 1.359375 -6.078125 1.816406 -6.539062 2.390625 -6.875 C 2.972656 -7.207031 3.609375 -7.375 4.296875 -7.375 C 4.972656 -7.375 5.597656 -7.207031 6.171875 -6.875 C 6.753906 -6.539062 7.210938 -6.078125 7.546875 -5.484375 C 7.890625 -4.898438 8.0625 -4.265625 8.0625 -3.578125 C 8.0625 -2.890625 7.894531 -2.253906 7.5625 -1.671875 C 7.226562 -1.085938 6.769531 -0.628906 6.1875 -0.296875 C 5.601562 0.0351562 4.972656 0.203125 4.296875 0.203125 C 3.609375 0.203125 2.972656 0.0351562 2.390625 -0.296875 C 1.804688 -0.640625 1.347656 -1.101562 1.015625 -1.6875 C 0.679688 -2.269531 0.515625 -2.898438 0.515625 -3.578125 Z M 4.28125 -6.25 C 3.550781 -6.25 2.941406 -5.988281 2.453125 -5.46875 C 1.972656 -4.957031 1.734375 -4.332031 1.734375 -3.59375 C 1.734375 -3.039062 1.863281 -2.550781 2.125 -2.125 C 2.394531 -1.707031 2.722656 -1.40625 3.109375 -1.21875 C 3.492188 -1.03125 3.890625 -0.9375 4.296875 -0.9375 C 4.765625 -0.9375 5.191406 -1.046875 5.578125 -1.265625 C 5.960938 -1.484375 6.269531 -1.796875 6.5 -2.203125 C 6.726562 -2.617188 6.84375 -3.082031 6.84375 -3.59375 C 6.84375 -4.0625 6.738281 -4.5 6.53125 -4.90625 C 6.320312 -5.3125 6.019531 -5.632812 5.625 -5.875 C 5.226562 -6.125 4.78125 -6.25 4.28125 -6.25 Z M 4.28125 -6.25 "/></g></g></g><g fill="#2a89fa" fill-opacity="1"><g transform="translate(120.6255, 276.803039)"><g><path d="M 2.296875 -7.1875 L 2.296875 -3.078125 C 2.296875 -2.316406 2.410156 -1.769531 2.640625 -1.4375 C 2.878906 -1.101562 3.300781 -0.9375 3.90625 -0.9375 C 4.507812 -0.9375 4.929688 -1.097656 5.171875 -1.421875 C 5.410156 -1.753906 5.53125 -2.285156 5.53125 -3.015625 L 5.53125 -7.1875 L 6.75 -7.1875 L 6.75 -2.96875 C 6.75 -1.925781 6.507812 -1.132812 6.03125 -0.59375 C 5.5625 -0.0625 4.851562 0.203125 3.90625 0.203125 C 2.957031 0.203125 2.242188 -0.0664062 1.765625 -0.609375 C 1.296875 -1.148438 1.0625 -1.9375 1.0625 -2.96875 L 1.0625 -7.1875 Z M 2.296875 -7.1875 "/></g></g></g><g fill="#2a89fa" fill-opacity="1"><g transform="translate(132.523715, 276.803039)"><g><path d="M 4.46875 -5.921875 C 4.34375 -6.015625 4.222656 -6.09375 4.109375 -6.15625 C 4.003906 -6.21875 3.878906 -6.25 3.734375 -6.25 C 3.273438 -6.25 2.925781 -6.046875 2.6875 -5.640625 C 2.445312 -5.234375 2.328125 -4.578125 2.328125 -3.671875 L 2.328125 0 L 1.09375 0 L 1.09375 -7.1875 L 2.328125 -7.1875 L 2.328125 -6.40625 L 2.359375 -6.40625 C 2.648438 -6.800781 2.910156 -7.0625 3.140625 -7.1875 C 3.367188 -7.3125 3.632812 -7.375 3.9375 -7.375 C 4.125 -7.375 4.3125 -7.34375 4.5 -7.28125 C 4.6875 -7.226562 4.867188 -7.148438 5.046875 -7.046875 Z M 4.46875 -5.921875 "/></g></g></g><g fill="#2a89fa" fill-opacity="1"><g transform="translate(141.719237, 276.803039)"><g/></g></g><g fill="#2a89fa" fill-opacity="1"><g transform="translate(150.502485, 276.803039)"><g><path d="M 5.40625 -12.078125 L 10.59375 0 L 9.171875 0 L 7.8125 -3.265625 L 2.890625 -3.265625 L 1.5 0 L 0.09375 0 Z M 3.40625 -4.46875 L 7.296875 -4.46875 L 5.375 -9.078125 Z M 2.078125 -11.515625 Z M 2.078125 -11.515625 "/></g></g></g><g fill="#2a89fa" fill-opacity="1"><g transform="translate(165.256093, 276.803039)"><g><path d="M 2.46875 -11.515625 L 2.46875 0 L 1.1875 0 L 1.1875 -11.515625 Z M 2.46875 -11.515625 "/></g></g></g><g fill="#2a89fa" fill-opacity="1"><g transform="translate(172.985741, 276.803039)"><g/></g></g><g fill="#2a89fa" fill-opacity="1"><g transform="translate(181.768989, 276.803039)"><g><path d="M 8.34375 -12.125 L 12.078125 -2.890625 L 15.09375 -11.515625 L 16.484375 -11.515625 L 12.078125 0.59375 L 8.34375 -8.6875 L 4.609375 0.59375 L 0.203125 -11.515625 L 1.59375 -11.515625 L 4.609375 -2.890625 Z M 1.578125 0 Z M 1.578125 0 "/></g></g></g><g fill="#2a89fa" fill-opacity="1"><g transform="translate(202.508223, 276.803039)"><g><path d="M 6.5 -6.15625 L 6.5 -7.1875 L 7.71875 -7.1875 L 7.71875 0 L 6.5 0 L 6.5 -1 L 6.46875 -1 C 5.832031 -0.195312 5.003906 0.203125 3.984375 0.203125 C 2.984375 0.203125 2.160156 -0.160156 1.515625 -0.890625 C 0.867188 -1.628906 0.546875 -2.523438 0.546875 -3.578125 C 0.546875 -4.671875 0.867188 -5.578125 1.515625 -6.296875 C 2.171875 -7.015625 3 -7.375 4 -7.375 C 4.5 -7.375 4.957031 -7.265625 5.375 -7.046875 C 5.800781 -6.835938 6.164062 -6.539062 6.46875 -6.15625 Z M 4.140625 -6.25 C 3.484375 -6.25 2.925781 -6 2.46875 -5.5 C 2.019531 -5 1.796875 -4.390625 1.796875 -3.671875 C 1.796875 -2.890625 2.015625 -2.238281 2.453125 -1.71875 C 2.898438 -1.195312 3.46875 -0.9375 4.15625 -0.9375 C 4.875 -0.9375 5.453125 -1.1875 5.890625 -1.6875 C 6.335938 -2.1875 6.5625 -2.84375 6.5625 -3.65625 C 6.5625 -4.394531 6.332031 -5.007812 5.875 -5.5 C 5.425781 -6 4.847656 -6.25 4.140625 -6.25 Z M 4.140625 -6.25 "/></g></g></g><g fill="#2a89fa" fill-opacity="1"><g transform="translate(215.39895, 276.803039)"><g><path d="M 4.46875 -5.921875 C 4.34375 -6.015625 4.222656 -6.09375 4.109375 -6.15625 C 4.003906 -6.21875 3.878906 -6.25 3.734375 -6.25 C 3.273438 -6.25 2.925781 -6.046875 2.6875 -5.640625 C 2.445312 -5.234375 2.328125 -4.578125 2.328125 -3.671875 L 2.328125 0 L 1.09375 0 L 1.09375 -7.1875 L 2.328125 -7.1875 L 2.328125 -6.40625 L 2.359375 -6.40625 C 2.648438 -6.800781 2.910156 -7.0625 3.140625 -7.1875 C 3.367188 -7.3125 3.632812 -7.375 3.9375 -7.375 C 4.125 -7.375 4.3125 -7.34375 4.5 -7.28125 C 4.6875 -7.226562 4.867188 -7.148438 5.046875 -7.046875 Z M 4.46875 -5.921875 "/></g></g></g><g fill="#2a89fa" fill-opacity="1"><g transform="translate(224.594471, 276.803039)"><g><path d="M 7.71875 -12.609375 L 7.71875 0 L 6.5 0 L 6.5 -1 L 6.46875 -1 C 6.15625 -0.59375 5.785156 -0.289062 5.359375 -0.09375 C 4.941406 0.101562 4.484375 0.203125 3.984375 0.203125 C 3.335938 0.203125 2.75 0.03125 2.21875 -0.3125 C 1.6875 -0.65625 1.273438 -1.113281 0.984375 -1.6875 C 0.691406 -2.257812 0.546875 -2.890625 0.546875 -3.578125 C 0.546875 -4.273438 0.691406 -4.914062 0.984375 -5.5 C 1.273438 -6.09375 1.6875 -6.550781 2.21875 -6.875 C 2.75 -7.207031 3.34375 -7.375 4 -7.375 C 4.488281 -7.375 4.945312 -7.265625 5.375 -7.046875 C 5.800781 -6.835938 6.164062 -6.539062 6.46875 -6.15625 L 6.5 -6.15625 L 6.5 -12.609375 Z M 4.140625 -6.25 C 3.472656 -6.25 2.914062 -5.992188 2.46875 -5.484375 C 2.019531 -4.984375 1.796875 -4.378906 1.796875 -3.671875 C 1.796875 -2.878906 2.015625 -2.222656 2.453125 -1.703125 C 2.898438 -1.191406 3.46875 -0.9375 4.15625 -0.9375 C 4.863281 -0.9375 5.441406 -1.1875 5.890625 -1.6875 C 6.335938 -2.1875 6.5625 -2.84375 6.5625 -3.65625 C 6.5625 -4.425781 6.332031 -5.050781 5.875 -5.53125 C 5.425781 -6.007812 4.847656 -6.25 4.140625 -6.25 Z M 4.140625 -6.25 "/></g></g></g><g fill="#2a89fa" fill-opacity="1"><g transform="translate(237.485198, 276.803039)"><g><path d="M 4.46875 -5.921875 C 4.34375 -6.015625 4.222656 -6.09375 4.109375 -6.15625 C 4.003906 -6.21875 3.878906 -6.25 3.734375 -6.25 C 3.273438 -6.25 2.925781 -6.046875 2.6875 -5.640625 C 2.445312 -5.234375 2.328125 -4.578125 2.328125 -3.671875 L 2.328125 0 L 1.09375 0 L 1.09375 -7.1875 L 2.328125 -7.1875 L 2.328125 -6.40625 L 2.359375 -6.40625 C 2.648438 -6.800781 2.910156 -7.0625 3.140625 -7.1875 C 3.367188 -7.3125 3.632812 -7.375 3.9375 -7.375 C 4.125 -7.375 4.3125 -7.34375 4.5 -7.28125 C 4.6875 -7.226562 4.867188 -7.148438 5.046875 -7.046875 Z M 4.46875 -5.921875 "/></g></g></g><g fill="#2a89fa" fill-opacity="1"><g transform="translate(246.68072, 276.803039)"><g><path d="M 0.515625 -3.578125 C 0.515625 -4.253906 0.679688 -4.890625 1.015625 -5.484375 C 1.359375 -6.078125 1.816406 -6.539062 2.390625 -6.875 C 2.972656 -7.207031 3.609375 -7.375 4.296875 -7.375 C 4.972656 -7.375 5.597656 -7.207031 6.171875 -6.875 C 6.753906 -6.539062 7.210938 -6.078125 7.546875 -5.484375 C 7.890625 -4.898438 8.0625 -4.265625 8.0625 -3.578125 C 8.0625 -2.890625 7.894531 -2.253906 7.5625 -1.671875 C 7.226562 -1.085938 6.769531 -0.628906 6.1875 -0.296875 C 5.601562 0.0351562 4.972656 0.203125 4.296875 0.203125 C 3.609375 0.203125 2.972656 0.0351562 2.390625 -0.296875 C 1.804688 -0.640625 1.347656 -1.101562 1.015625 -1.6875 C 0.679688 -2.269531 0.515625 -2.898438 0.515625 -3.578125 Z M 4.28125 -6.25 C 3.550781 -6.25 2.941406 -5.988281 2.453125 -5.46875 C 1.972656 -4.957031 1.734375 -4.332031 1.734375 -3.59375 C 1.734375 -3.039062 1.863281 -2.550781 2.125 -2.125 C 2.394531 -1.707031 2.722656 -1.40625 3.109375 -1.21875 C 3.492188 -1.03125 3.890625 -0.9375 4.296875 -0.9375 C 4.765625 -0.9375 5.191406 -1.046875 5.578125 -1.265625 C 5.960938 -1.484375 6.269531 -1.796875 6.5 -2.203125 C 6.726562 -2.617188 6.84375 -3.082031 6.84375 -3.59375 C 6.84375 -4.0625 6.738281 -4.5 6.53125 -4.90625 C 6.320312 -5.3125 6.019531 -5.632812 5.625 -5.875 C 5.226562 -6.125 4.78125 -6.25 4.28125 -6.25 Z M 4.28125 -6.25 "/></g></g></g><g fill="#2a89fa" fill-opacity="1"><g transform="translate(259.342405, 276.803039)"><g><path d="M 2.328125 -12.609375 L 2.328125 -6.15625 L 2.359375 -6.15625 C 2.648438 -6.539062 3.007812 -6.835938 3.4375 -7.046875 C 3.863281 -7.265625 4.320312 -7.375 4.8125 -7.375 C 5.519531 -7.375 6.132812 -7.195312 6.65625 -6.84375 C 7.1875 -6.488281 7.585938 -6.019531 7.859375 -5.4375 C 8.128906 -4.863281 8.265625 -4.25 8.265625 -3.59375 C 8.265625 -2.9375 8.128906 -2.316406 7.859375 -1.734375 C 7.585938 -1.160156 7.1875 -0.691406 6.65625 -0.328125 C 6.125 0.0234375 5.515625 0.203125 4.828125 0.203125 C 4.328125 0.203125 3.863281 0.101562 3.4375 -0.09375 C 3.007812 -0.300781 2.648438 -0.601562 2.359375 -1 L 2.328125 -1 L 2.328125 0 L 1.09375 0 L 1.09375 -12.609375 Z M 4.578125 -6.25 C 3.929688 -6.25 3.382812 -5.992188 2.9375 -5.484375 C 2.488281 -4.972656 2.265625 -4.367188 2.265625 -3.671875 C 2.265625 -2.878906 2.484375 -2.222656 2.921875 -1.703125 C 3.359375 -1.191406 3.921875 -0.9375 4.609375 -0.9375 C 5.335938 -0.9375 5.921875 -1.1875 6.359375 -1.6875 C 6.796875 -2.1875 7.015625 -2.84375 7.015625 -3.65625 C 7.015625 -4.414062 6.785156 -5.035156 6.328125 -5.515625 C 5.878906 -6.003906 5.296875 -6.25 4.578125 -6.25 Z M 4.578125 -6.25 "/></g></g></g><g fill="#2a89fa" fill-opacity="1"><g transform="translate(272.233132, 276.803039)"><g><path d="M 7.40625 -3.328125 L 1.765625 -3.328125 C 1.785156 -2.617188 2.019531 -2.039062 2.46875 -1.59375 C 2.914062 -1.15625 3.46875 -0.9375 4.125 -0.9375 C 4.582031 -0.9375 4.988281 -1.050781 5.34375 -1.28125 C 5.695312 -1.519531 6.019531 -1.898438 6.3125 -2.421875 L 7.34375 -1.8125 C 7 -1.175781 6.546875 -0.679688 5.984375 -0.328125 C 5.421875 0.0234375 4.769531 0.203125 4.03125 0.203125 C 3.332031 0.203125 2.710938 0.0351562 2.171875 -0.296875 C 1.628906 -0.640625 1.21875 -1.09375 0.9375 -1.65625 C 0.65625 -2.21875 0.515625 -2.832031 0.515625 -3.5 C 0.515625 -4.226562 0.65625 -4.890625 0.9375 -5.484375 C 1.21875 -6.078125 1.625 -6.539062 2.15625 -6.875 C 2.6875 -7.207031 3.300781 -7.375 4 -7.375 C 4.6875 -7.375 5.289062 -7.207031 5.8125 -6.875 C 6.332031 -6.550781 6.726562 -6.097656 7 -5.515625 C 7.28125 -4.929688 7.421875 -4.28125 7.421875 -3.5625 C 7.421875 -3.488281 7.414062 -3.410156 7.40625 -3.328125 Z M 6.125 -4.375 C 6.019531 -4.925781 5.769531 -5.375 5.375 -5.71875 C 4.976562 -6.070312 4.523438 -6.25 4.015625 -6.25 C 3.515625 -6.25 3.046875 -6.066406 2.609375 -5.703125 C 2.171875 -5.347656 1.910156 -4.90625 1.828125 -4.375 Z M 6.125 -4.375 "/></g></g></g><g clip-path="url(#d402b1da56)"><path fill="#2a89fa" d="M 146.605469 101.984375 C 141.074219 101.984375 136.519531 106.539062 136.519531 112.070312 C 136.519531 117.597656 141.078125 122.15625 146.605469 122.15625 C 173.875 122.15625 201.144531 122.15625 228.410156 122.15625 C 233.941406 122.15625 238.496094 117.597656 238.496094 112.070312 C 238.496094 106.539062 233.941406 101.984375 228.410156 101.984375 C 201.144531 101.984375 173.875 101.984375 146.605469 101.984375 M 162.363281 175.371094 L 162.363281 193.871094 C 162.363281 199.402344 166.917969 203.957031 172.449219 203.957031 C 177.980469 203.957031 182.535156 199.402344 182.535156 193.871094 L 182.535156 175.371094 Z M 154.101562 167.109375 L 154.101562 146.9375 L 146.605469 146.9375 C 141.078125 146.9375 136.519531 151.492188 136.519531 157.023438 C 136.519531 162.554688 141.074219 167.109375 146.605469 167.109375 Z M 146.605469 93.722656 C 180.746094 93.722656 194.273438 93.722656 228.410156 93.722656 C 238.503906 93.722656 246.757812 101.976562 246.757812 112.070312 C 246.757812 122.160156 238.5 130.414062 228.410156 130.414062 L 162.363281 130.414062 C 162.363281 142.648438 162.363281 154.878906 162.363281 167.109375 C 174.339844 167.109375 186.316406 167.109375 198.292969 167.109375 C 203.824219 167.109375 208.375 162.554688 208.375 157.023438 C 208.375 151.492188 203.820312 146.9375 198.292969 146.9375 L 182.535156 146.9375 L 182.535156 138.675781 L 198.292969 138.675781 C 208.378906 138.675781 216.636719 146.933594 216.636719 157.023438 C 216.636719 167.117188 208.382812 175.371094 198.292969 175.371094 L 190.796875 175.371094 L 190.796875 193.871094 C 190.796875 203.960938 182.539062 212.21875 172.449219 212.21875 C 162.355469 212.21875 154.101562 203.964844 154.101562 193.871094 L 154.101562 175.371094 L 146.605469 175.371094 C 136.515625 175.371094 128.257812 167.117188 128.257812 157.023438 C 128.257812 146.933594 136.515625 138.675781 146.605469 138.675781 L 154.101562 138.675781 L 154.101562 130.414062 L 146.605469 130.414062 C 136.515625 130.414062 128.257812 122.160156 128.257812 112.070312 C 128.257812 101.976562 136.515625 93.722656 146.605469 93.722656 Z M 146.605469 93.722656 " fill-opacity="1" fill-rule="evenodd"/></g></svg>